<svg width="1024" height="1024" viewBox="0 0 1024 1024" xmlns="http://www.w3.org/2000/svg">
<defs>
<linearGradient id="bgF" x1="0" y1="0" x2="0.6" y2="1">
<stop offset="0%" stop-color="#141722"/>
<stop offset="100%" stop-color="#0a0c14"/>
</linearGradient>
<linearGradient id="accF" x1="0" y1="0" x2="1" y2="1">
<stop offset="0%" stop-color="#b794f6"/>
<stop offset="100%" stop-color="#8b6cf7"/>
</linearGradient>
<clipPath id="clipF">
<rect x="0" y="0" width="1024" height="1024" rx="228"/>
</clipPath>
</defs>

<rect x="0" y="0" width="1024" height="1024" rx="228" fill="url(#bgF)"/>

<g clip-path="url(#clipF)">
<g transform="translate(512, 512)">

<rect x="-290" y="-290" width="278" height="278" rx="38" fill="#252a40" stroke="rgba(255,255,255,0.08)" stroke-width="1.2"/>
<rect x="-238" y="-220" width="86" height="7" rx="3.5" fill="rgba(255,255,255,0.12)"/>
<rect x="-238" y="-200" width="58" height="7" rx="3.5" fill="rgba(255,255,255,0.07)"/>
<circle cx="-60" cy="-244" r="7" fill="rgba(255,255,255,0.1)"/>

<rect x="12" y="-290" width="278" height="278" rx="38" fill="#252a40" stroke="rgba(255,255,255,0.08)" stroke-width="1.2"/>
<rect x="64" y="-220" width="74" height="7" rx="3.5" fill="rgba(255,255,255,0.12)"/>
<rect x="64" y="-200" width="98" height="7" rx="3.5" fill="rgba(255,255,255,0.07)"/>
<circle cx="242" cy="-244" r="7" fill="rgba(255,255,255,0.1)"/>

<rect x="-290" y="12" width="278" height="278" rx="38" fill="#252a40" stroke="rgba(255,255,255,0.08)" stroke-width="1.2"/>
<rect x="-238" y="82" width="98" height="7" rx="3.5" fill="rgba(255,255,255,0.12)"/>
<rect x="-238" y="102" width="70" height="7" rx="3.5" fill="rgba(255,255,255,0.07)"/>
<circle cx="-60" cy="58" r="7" fill="rgba(255,255,255,0.1)"/>

<rect x="12" y="12" width="278" height="278" rx="38" fill="url(#accF)"/>
<text x="58" y="180" font-family="monospace, 'Courier New', Courier" font-size="80" font-weight="700" fill="rgba(255,255,255,0.95)">&gt;_</text>
</g>
</g>

<rect x="0" y="0" width="1024" height="1024" rx="228" fill="none" stroke="rgba(255,255,255,0.04)" stroke-width="2"/>
</svg>
